PathFileType	4	(X/Y/Z)	C:/Users/beibeiliu/ov580/test_trc/User1\sequence.11_training_dense_left.trc
DataRate	CameraRate	NumFrames	NumMarkers	Units	OrigDataRate	OrigDataStartFrame	OrigNumFrames
120	120	16	19	mm	120	43	341
Frame#	Time	ThumbCMC			ThumbMCP			ThumbIP			ThumbTip			IndexMCP			IndexPIP			IndexTip			MiddleMCP			MiddlePIP			MiddleTip			RingMCP			RingPIP			RingTip			PinkyMCP			PinkyPIP			PinkyTip			BackHand1			BackHand2			BackHand3	
		X0	Y0	Z0	X1	Y1	Z1	X2	Y2	Z2	X3	Y3	Z3	X4	Y4	Z4	X5	Y5	Z5	X6	Y6	Z6	X7	Y7	Z7	X8	Y8	Z8	X9	Y9	Z9	X10	Y10	Z10	X11	Y11	Z11	X12	Y12	Z12	X13	Y13	Z13	X14	Y14	Z14	X15	Y15	Z15	X16	Y16	Z16	X17	Y17	Z17	X18	Y18	Z18	
42	0.35	-173.278	97.0642	47.068	-150.422	83.8566	21.6123	-149.712	82.138	-10.6464	-152.991	73.759	-33.3797	-173.336	136.991	-25.5952	-170.872	140.018	-54.0977	-170.585	141.94	-82.1816	-187.71	107.201	-45.382	-174.353	76.2038	-49.9176	-171.122	60.0511	-12.2223	-206.517	84.6969	-36.319	-191.576	56.26	-21.7047	-192.888	64.83	10.3408	-226.373	73.3978	-30.3493	-204.712	59.1861	-14.7922	-207.18	78.7656	11.8583	-233.187	114.21	13.9285	-240.973	106.484	47.3051	-206.288	121.741	41.3022	
43	0.358333	-172.808	98.4327	48.8057	-155.18	85.9383	19.9514	-147.747	82.6693	-6.68323	-151.903	75.3453	-37.2718	-177.603	139.325	-27.4551	-170.129	146.198	-48.3035	-171.614	149.092	-75.1613	-193.95	118.511	-43.9034	-173.305	92.0691	-62.9715	-167.178	61.6249	-43.5089	-204.197	87.3371	-38.3944	-190.134	61.3538	-27.6818	-194.315	64.3212	8.2554	-222.902	77.8123	-31.5228	-204.792	62.1452	-15.8867	-204.942	79.7768	10.831	-231.742	118.238	11.75	-244.637	108.328	46.3831	-205.29	123.981	42.6045	
44	0.366667	-176.963	97.677	49.1631	-152.469	84.4417	18.7805	-147.088	83.7667	-13.7951	-158.414	77.0751	-36.6402	-173.853	142.07	-23.469	-170.689	149.372	-46.3606	-170.913	155.407	-75.5973	-193.369	127.885	-41.4168	-182.316	110.879	-69.161	-166.522	76.2568	-75.6331	-206.077	90.2228	-39.7137	-191.304	64.5341	-30.826	-193.626	64.9694	5.58046	-227.226	83.4831	-29.7651	-204.847	65.9084	-13.8263	-205.79	89.2416	10.3648	-232.527	119.379	13.9479	-239.167	111.999	47.5839	-203.238	127.955	40.6314	
45	0.375	-174.55	98.9679	46.7632	-154.714	86.2786	13.8715	-155.867	82.8863	-12.9257	-164.497	76.0577	-37.0303	-172.702	145.263	-23.766	-167.283	152.938	-47.8094	-167.774	160.293	-73.0016	-194.378	132.166	-44.3737	-186.786	119.146	-74.0329	-174.919	99.3428	-94.0869	-205.201	97.9904	-38.9961	-191.769	68.7337	-32.4865	-192.837	66.609	5.37023	-225.747	82.218	-30.5508	-206.187	68.4979	-14.0713	-204.121	89.7345	10.3796	-236.32	120.954	14.0091	-240.451	114.524	50.4401	-204.708	127.284	42.4114	
46	0.383333	-173.148	103.025	45.1055	-153.836	87.2194	13.2212	-159.547	85.067	-15.794	-178.839	79.4637	-37.8529	-173.183	146.978	-23.1096	-169.973	153.506	-45.1625	-171.43	161.552	-72.3617	-194.673	136.086	-43.8538	-187.095	128.614	-73.6159	-181.712	116.161	-98.3772	-211.803	97.7028	-39.2256	-191.659	69.7372	-32.3045	-194.733	64.1506	1.66697	-226.233	82.961	-29.8082	-205.49	72.5697	-16.5182	-205.775	91.8546	9.6907	-233.078	124.907	13.7144	-242.129	114.417	49.6325	-204.167	129.328	41.9465	
47	0.391667	-172.935	102.242	45.9414	-159.704	88.7535	12.3282	-160.571	85.47	-20.6556	-179.071	77.2214	-40.9902	-172.969	149.096	-26.3488	-167.67	153.85	-44.7694	-167.136	164.731	-70.4373	-198.707	137.368	-41.0457	-193.427	132.274	-70.6346	-185.028	126.266	-99.0698	-209.846	96.8292	-39.9538	-193.598	71.2287	-32.1133	-194.934	65.1071	2.76112	-228.242	87.9017	-28.0412	-207.006	73.5248	-12.4741	-208.151	95.8479	11.8547	-235.053	123.263	16.1396	-240.083	119.034	48.3219	-204.831	131.938	42.3912	
48	0.4	-175.303	102.138	47.7983	-160.001	88.2973	12.7708	-160.984	84.9814	-20.4344	-184.184	79.4802	-38.3847	-174.015	149.121	-25.0474	-170.495	155.273	-47.2846	-169.468	164.786	-70.5119	-201.679	137.427	-41.8529	-191.585	135.389	-70.9636	-185.927	130.336	-100.779	-210.045	101.86	-37.1946	-197.394	68.4818	-31.249	-192.454	68.898	3.8227	-228.869	83.9982	-28.3074	-206.196	75.0245	-11.0734	-206.344	93.9412	11.2089	-237.61	124.699	15.9577	-241.831	117.99	46.5698	-209.584	130.859	42.0051	
49	0.408333	-171.754	103.56	43.9775	-160.239	89.0308	12.1757	-163.668	85.3085	-18.6394	-183.119	78.2476	-41.3419	-174.204	148.886	-28.2788	-168.177	155.337	-50.1648	-167.248	163.868	-71.1041	-201.206	138.19	-43.92	-195.755	134.009	-70.6461	-193.678	129.454	-102.934	-211.917	99.2974	-39.8909	-194.968	69.4351	-31.2628	-195.565	64.7892	1.44695	-230.771	90.9799	-27.7719	-207.594	75.0379	-15.6753	-207.301	91.5858	14.7276	-236.133	126.95	13.6471	-239.404	117.286	48.6545	-207.101	131.723	40.6402	
50	0.416667	-173.955	99.075	47.8018	-159.327	86.4604	10.5218	-164.599	82.2013	-17.9892	-181.086	74.234	-43.1065	-172.623	143.858	-24.1298	-171.431	151.608	-50.7453	-167.227	160.04	-69.9386	-201.806	134.246	-43.526	-196.829	131.269	-71.2369	-195.502	127.088	-98.8014	-212.324	99.3525	-38.7414	-198.117	65.4966	-31.287	-195.98	63.5881	3.20293	-230.296	84.3281	-28.7335	-210.555	67.8589	-16.3762	-204.167	86.7291	10.5252	-236.033	124.214	15.8791	-242.709	117.482	47.8911	-207.214	130.529	40.1971	
51	0.425	-173.53	96.0066	46.7877	-157.035	79.773	10.9916	-166.239	76.4415	-18.0236	-185.73	69.2857	-43.2206	-174.131	139.4	-29.3455	-169.36	144.758	-52.2448	-169.12	155.208	-75.8556	-201.592	129.368	-44.7118	-195.257	126.722	-69.2204	-196.459	120.935	-104.722	-210.65	94.1716	-39.0769	-196.392	62.4748	-31.5644	-198.35	56.9675	-0.100332	-235.296	81.092	-28.0908	-210.834	64.4689	-14.6332	-206.222	82.8267	9.46772	-233.804	121.748	13.5203	-243.395	113.975	47.4889	-204.306	129.382	38.6825	
52	0.433333	-176.626	95.1997	42.1316	-160.735	75.68	12.7989	-166.622	69.7319	-23.8253	-188.025	60.2567	-40.1329	-177.057	129.794	-33.4178	-171.63	133.193	-56.4866	-170.195	140.845	-81.9785	-204.638	119.136	-52.0559	-197.645	115.403	-73.168	-194.322	108.51	-104.072	-217.637	83.7676	-38.2002	-199.685	53.8819	-30.4564	-199.448	50.023	3.54052	-235.312	72.2889	-26.5009	-213.843	55.9589	-11.1267	-208.748	72.7867	18.0021	-233.621	115.915	10.0858	-244.406	112.753	48.3566	-203.789	126.17	33.2027	
53	0.441667	-173.461	89.8197	42.7407	-160.071	69.0115	7.23183	-167.567	58.2396	-22.3152	-188.733	48.4152	-35.9226	-176.625	118.32	-37.326	-170.051	119.239	-62.2889	-167.715	122.802	-84.0644	-202.164	107.319	-54.2335	-200.602	99.5852	-79.4304	-200.896	90.8171	-106.286	-213.05	72.7282	-38.7551	-203.111	43.2333	-28.192	-197.319	41.0978	3.37293	-233.669	64.3444	-25.299	-214.114	47.5823	-8.8263	-207.097	63.0658	17.8646	-237.668	110.268	11.396	-240.898	110.313	44.9451	-201.744	121.369	29.3057	
54	0.45	-172.26	85.6198	37.0727	-161.416	61.3966	10.1397	-168.925	48.9582	-19.5537	-190.074	38.1388	-33.1396	-176.27	106.439	-41.661	-169.361	106.158	-68.3773	-167.828	106.641	-88.4763	-208.453	94.8432	-54.178	-202.281	85.0967	-80.903	-202.581	76.3366	-108.074	-219.282	61.1328	-36.7682	-205.749	31.0335	-22.3175	-198.929	35.5887	7.37657	-233.851	51.9594	-22.5025	-216.196	37.9419	-4.93521	-209.104	57.5214	18.7649	-236.358	103.486	7.52581	-241.073	103.307	44.2695	-201.209	113.063	27.5767	
55	0.458333	-174.837	80.8962	38.033	-161.296	55.7687	8.28784	-171.939	44.2102	-16.3074	-190.816	29.2693	-35.1521	-177.472	98.6277	-41.3195	-170.636	94.8406	-67.481	-168.017	95.088	-91.718	-206.237	88.4264	-54.4963	-202.45	78.3333	-80.7407	-206.559	66.9156	-104.036	-217.221	57.5946	-36.522	-204.051	24.6664	-19.3049	-199.46	31.43	9.97717	-236.476	46.4726	-21.4026	-216.919	32.4962	-5.51391	-211.37	53.1309	23.5802	-232.754	98.2164	7.66581	-236.712	102.546	41.2889	-202.785	111.025	28.637	
56	0.466667	-172.635	79.8263	37.3058	-159.548	53.9401	9.42667	-168.431	40.9097	-17.76	-188.119	26.7572	-33.1439	-174.056	96.0808	-42.8414	-167.45	91.6975	-65.9036	-164.796	90.1699	-89.2392	-205.999	84.5845	-56.0778	-204.379	72.5671	-80.8251	-207.164	60.9187	-107.011	-217.845	54.2492	-35.5696	-204.313	23.039	-18.5343	-197.765	32.7973	12.0543	-235.89	48.1058	-20.8927	-217.577	29.7015	-5.67873	-210.63	49.0442	23.0145	-236.065	95.7535	3.49867	-240.449	101.336	43.5608	-200.065	107.023	24.9499	
57	0.475	-174.652	79.0634	42.0546	-161.167	55.9556	13.0324	-172.721	44.4634	-16.0487	-189.904	32.2207	-30.5243	-172.365	95.7463	-43.8046	-169.473	92.3942	-67.2908	-164.854	90.4269	-92.1009	-206.715	85.8232	-54.8674	-204.33	75.5134	-76.0454	-205.004	61.6035	-107.519	-215.214	51.4582	-37.2796	-201.912	24.7217	-21.4611	-198.496	31.92	8.57471	-236.353	47.199	-20.9815	-217.994	28.368	-2.14415	-209.094	46.6372	23.2341	-235.094	94.6729	7.21606	-235.385	102.314	42.6926	-201.988	107.974	28.0699	
